<svg width="64" height="64" viewBox="0 0 64 64" fill="none" xmlns="http://www.w3.org/2000/svg">
<path d="M48 6.6C43.3 3.7 37.9 2 32 2V6.6H48Z" fill="#ED4C5C"/>
<path d="M32 11.2001H53.6C51.9 9.5001 50 7.9001 48 6.6001H32V11.2001Z" fill="white"/>
<path d="M32 15.8002H57.3C56.2 14.1002 55 12.6002 53.7 11.2002H32V15.8002Z" fill="#ED4C5C"/>
<path d="M32 20.3998H59.7C59 18.7998 58.2 17.1998 57.3 15.7998H32V20.3998Z" fill="white"/>
<path d="M32 24.9999H61.2C60.8 23.3999 60.3 21.8999 59.7 20.3999H32V24.9999Z" fill="#ED4C5C"/>
<path d="M32 29.7001H61.9C61.8 28.1001 61.5 26.6001 61.2 25.1001H32V29.7001" fill="white"/>
<path d="M61.9 29.7002H32V32.0002H2C2 32.8002 2 33.5002 2.1 34.3002H61.9C62 33.5002 62 32.8002 62 32.0002C62 31.2002 62 30.4002 61.9 29.7002" fill="#ED4C5C"/>
<path d="M2.79961 38.8998H61.1996C61.5996 37.3998 61.7996 35.8998 61.8996 34.2998H2.09961C2.19961 35.7998 2.49961 37.3998 2.79961 38.8998Z" fill="white"/>
<path d="M4.30078 43.4999H59.7008C60.3008 41.9999 60.8008 40.4999 61.2008 38.8999H2.80078C3.20078 40.4999 3.70078 41.9999 4.30078 43.4999Z" fill="#ED4C5C"/>
<path d="M6.70078 48.1H57.3008C58.2008 46.6 59.0008 45.1 59.7008 43.5H4.30078C5.00078 45.1 5.80078 46.6 6.70078 48.1" fill="white"/>
<path d="M10.2992 52.7001H53.6992C54.9992 51.3001 56.2992 49.7001 57.2992 48.1001H6.69922C7.69922 49.8001 8.99922 51.3001 10.2992 52.7001Z" fill="#ED4C5C"/>
<path d="M15.9008 57.3002H48.1008C50.2008 56.0002 52.0008 54.4002 53.7008 52.7002H10.3008C12.0008 54.5002 13.9008 56.0002 15.9008 57.3002Z" fill="white"/>
<path d="M32.0004 61.9998C37.9004 61.9998 43.4004 60.2998 48.1004 57.2998H15.9004C20.6004 60.2998 26.1004 61.9998 32.0004 61.9998Z" fill="#ED4C5C"/>
<path d="M16 6.6C13.9 7.9 12 9.5 10.3 11.2C8.9 12.6 7.7 14.2 6.7 15.8C5.8 17.3 4.9 18.8 4.3 20.4C3.7 21.9 3.2 23.4 2.8 25C2.4 26.5 2.2 28 2.1 29.6C2 30.4 2 31.2 2 32H32V2C26.1 2 20.7 3.7 16 6.6Z" fill="#428BC1"/>
<path d="M25 3L25.5 4.5H27L25.8 5.5L26.2 7L25 6.1L23.8 7L24.2 5.5L23 4.5H24.5L25 3Z" fill="white"/>
<path d="M29 9L29.5 10.5H31L29.8 11.5L30.2 13L29 12.1L27.8 13L28.2 11.5L27 10.5H28.5L29 9Z" fill="white"/>
<path d="M21 9L21.5 10.5H23L21.8 11.5L22.2 13L21 12.1L19.8 13L20.2 11.5L19 10.5H20.5L21 9Z" fill="white"/>
<path d="M25 15L25.5 16.5H27L25.8 17.5L26.2 19L25 18.1L23.8 19L24.2 17.5L23 16.5H24.5L25 15Z" fill="white"/>
<path d="M17 15L17.5 16.5H19L17.8 17.5L18.2 19L17 18.1L15.8 19L16.2 17.5L15 16.5H16.5L17 15Z" fill="white"/>
<path d="M9 15L9.5 16.5H11L9.8 17.5L10.2 19L9 18.1L7.8 19L8.2 17.5L7 16.5H8.5L9 15Z" fill="white"/>
<path d="M29 21L29.5 22.5H31L29.8 23.5L30.2 25L29 24.1L27.8 25L28.2 23.5L27 22.5H28.5L29 21Z" fill="white"/>
<path d="M21 21L21.5 22.5H23L21.8 23.5L22.2 25L21 24.1L19.8 25L20.2 23.5L19 22.5H20.5L21 21Z" fill="white"/>
<path d="M13 21L13.5 22.5H15L13.8 23.5L14.2 25L13 24.1L11.8 25L12.2 23.5L11 22.5H12.5L13 21Z" fill="white"/>
<path d="M25 27L25.5 28.5H27L25.8 29.5L26.2 31L25 30.1L23.8 31L24.2 29.5L23 28.5H24.5L25 27Z" fill="white"/>
<path d="M17 27L17.5 28.5H19L17.8 29.5L18.2 31L17 30.1L15.8 31L16.2 29.5L15 28.5H16.5L17 27Z" fill="white"/>
<path d="M9 27L9.5 28.5H11L9.8 29.5L10.2 31L9 30.1L7.8 31L8.2 29.5L7 28.5H8.5L9 27Z" fill="white"/>
<path d="M11.7996 13L12.9996 12.1L14.1996 13L13.6996 11.5L14.8996 10.5H13.3996L12.9996 9L12.4996 10.5H11.0996L12.2996 11.4L11.7996 13" fill="white"/>
<path d="M3.80039 25L5.00039 24.1L6.20039 25L5.70039 23.5L6.90039 22.5H5.50039L5.00039 21L4.50039 22.5H3.50039C3.50039 22.6 3.40039 22.7 3.40039 22.8L4.20039 23.4L3.80039 25" fill="white"/>
</svg>
