<svg width="64" height="64" viewBox="0 0 64 64" fill="none" xmlns="http://www.w3.org/2000/svg">
<path d="M31.9996 2C19.2996 2 8.49961 9.9 4.09961 21H59.8996C55.4996 9.9 44.6996 2 31.9996 2Z" fill="#42ADE2"/>
<path d="M31.9996 62C44.6996 62 55.4996 54.1 59.8996 43H4.09961C8.49961 54.1 19.2996 62 31.9996 62Z" fill="#83BF4F"/>
<path d="M62 32C62 28.9 61.5 25.8 60.6 23H3.4C2.5 25.8 2 28.9 2 32C2 35.1 2.5 38.2 3.4 41H60.6C61.5 38.2 62 35.1 62 32Z" fill="white"/>
<path d="M59.9004 21C60.0004 21.3 60.2004 21.7 60.3004 22C60.4004 22.3 60.5004 22.7 60.6004 23" fill="#C94747"/>
<path d="M60.3004 22C60.2004 21.7 60.0004 21.3 59.9004 21H4.10039C4.00039 21.3 3.80039 21.7 3.70039 22C3.60039 22.3 3.50039 22.7 3.40039 23H60.6004C60.5004 22.7 60.4004 22.3 60.3004 22" fill="#C94747"/>
<path d="M3.70039 42C3.80039 42.3 4.00039 42.7 4.10039 43H59.9004C60.0004 42.7 60.2004 42.3 60.3004 42C60.4004 41.7 60.5004 41.3 60.6004 41H3.40039C3.50039 41.3 3.60039 41.7 3.70039 42" fill="#C94747"/>
<path d="M20.4 17.3C18 17.3 16.1 15.4 16.1 13C16.1 10.6 18 8.7 20.4 8.7C21 8.7 21.5 8.8 22 9C21.2 8.4 20.1 8 19 8C16.2 8 14 10.2 14 13C14 15.8 16.2 18 19 18C20.1 18 21.2 17.6 22 17C21.5 17.2 21 17.3 20.4 17.3Z" fill="white"/>
<path d="M24.7008 15.2002L25.1008 16.3002H26.2008L25.3008 16.9002L25.6008 18.0002L24.7008 17.3002L23.8008 18.0002L24.2008 16.9002L23.3008 16.3002H24.4008L24.7008 15.2002Z" fill="white"/>
<path d="M29 15.2002L29.3 16.3002H30.5L29.6 16.9002L29.9 18.0002L29 17.3002L28.1 18.0002L28.4 16.9002L27.5 16.3002H28.6L29 15.2002Z" fill="white"/>
<path d="M33.3008 15.2002L33.6008 16.3002H34.7008L33.8008 16.9002L34.2008 18.0002L33.3008 17.3002L32.3008 18.0002L32.7008 16.9002L31.8008 16.3002H32.9008L33.3008 15.2002Z" fill="white"/>
<path d="M37.5 15.2002L37.9 16.3002H39L38.1 16.9002L38.4 18.0002L37.5 17.3002L36.6 18.0002L36.9 16.9002L36 16.3002H37.2L37.5 15.2002Z" fill="white"/>
<path d="M41.8008 15.2002L42.1008 16.3002H43.3008L42.3008 16.9002L42.7008 18.0002L41.8008 17.3002L40.9008 18.0002L41.2008 16.9002L40.3008 16.3002H41.4008L41.8008 15.2002Z" fill="white"/>
<path d="M29 11.6001L29.3 12.7001H30.5L29.6 13.3001L29.9 14.4001L29 13.7001L28.1 14.4001L28.4 13.3001L27.5 12.7001H28.6L29 11.6001Z" fill="white"/>
<path d="M33.3008 11.6001L33.6008 12.7001H34.7008L33.8008 13.3001L34.2008 14.4001L33.3008 13.7001L32.3008 14.4001L32.7008 13.3001L31.8008 12.7001H32.9008L33.3008 11.6001Z" fill="white"/>
<path d="M37.5 11.6001L37.9 12.7001H39L38.1 13.3001L38.4 14.4001L37.5 13.7001L36.6 14.4001L36.9 13.3001L36 12.7001H37.2L37.5 11.6001Z" fill="white"/>
<path d="M41.8008 11.6001L42.1008 12.7001H43.3008L42.3008 13.3001L42.7008 14.4001L41.8008 13.7001L40.9008 14.4001L41.2008 13.3001L40.3008 12.7001H41.4008L41.8008 11.6001Z" fill="white"/>
<path d="M33.3008 8L33.6008 9.1H34.7008L33.8008 9.7L34.2008 10.8L33.3008 10.1L32.3008 10.8L32.7008 9.7L31.8008 9.1H32.9008L33.3008 8Z" fill="white"/>
<path d="M37.5 8L37.9 9.1H39L38.1 9.7L38.4 10.8L37.5 10.1L36.6 10.8L36.9 9.7L36 9.1H37.2L37.5 8Z" fill="white"/>
<path d="M41.8008 8L42.1008 9.1H43.3008L42.3008 9.7L42.7008 10.8L41.8008 10.1L40.9008 10.8L41.2008 9.7L40.3008 9.1H41.4008L41.8008 8Z" fill="white"/>
</svg>
