<svg width="20" height="20" viewBox="0 0 20 20" fill="none" xmlns="http://www.w3.org/2000/svg">
<path d="M12.5 0.9375H0.625V12.8125H7.5V19.375H19.375V7.5H12.5V0.9375ZM5.79316 3.75L3.83176 9.34766H5.15625L5.47523 8.4375H7.5V11.5625H1.875V2.1875H11.25V7.5H8.64578L7.33203 3.75H5.79316ZM7.2118 7.1875H5.9132L6.5625 5.33445L7.2118 7.1875ZM18.125 8.75V18.125H8.75V8.75H18.125Z" fill="silver"/>
<path d="M12.3997 14.3938C12.5192 14.5858 12.6509 14.77 12.7938 14.9453C12.3407 15.1897 11.8261 15.3121 11.25 15.3125V16.5625C12.193 16.5625 13.0355 16.3122 13.75 15.8272C14.4645 16.3122 15.307 16.5625 16.25 16.5625V15.3125C15.6751 15.3125 15.1605 15.19 14.7063 14.945C14.8492 14.7698 14.9808 14.5857 15.1003 14.3938C15.4606 13.808 15.7255 13.1688 15.8852 12.5H16.5625V11.25H14.375V10.3125H13.125V11.25H10.9375V12.5H11.6148C11.7745 13.1688 12.0394 13.808 12.3997 14.3938V14.3938ZM14.591 12.5C14.4617 12.9326 14.2765 13.3465 14.0402 13.7312C13.9519 13.8731 13.855 14.0094 13.75 14.1394C13.6526 14.019 13.5622 13.8931 13.4793 13.7624C13.2334 13.3691 13.0415 12.9445 12.9088 12.5H14.591Z" fill="silver"/>
</svg>
