<svg width="24" height="24" viewBox="0 0 24 24" fill="none" xmlns="http://www.w3.org/2000/svg">
<path d="M13.5443 10.456C12.7252 9.6372 11.6144 9.17725 10.4563 9.17725C9.29815 9.17725 8.18741 9.6372 7.3683 10.456L4.2793 13.544C3.46018 14.3631 3 15.474 3 16.6325C3 17.7909 3.46018 18.9018 4.2793 19.721C5.09842 20.5401 6.20939 21.0003 7.3678 21.0003C8.52621 21.0003 9.63718 20.5401 10.4563 19.721L12.0003 18.177" stroke="black" stroke-width="2" stroke-linecap="round" stroke-linejoin="round"/>
<path d="M10.457 13.5438C11.2761 14.3626 12.3869 14.8225 13.545 14.8225C14.7032 14.8225 15.8139 14.3626 16.633 13.5438L19.722 10.4558C20.5412 9.63669 21.0013 8.52572 21.0013 7.36731C21.0013 6.2089 20.5412 5.09793 19.722 4.27881C18.9029 3.45969 17.7919 2.99951 16.6335 2.99951C15.4751 2.99951 14.3642 3.45969 13.545 4.27881L12.001 5.82281" stroke="black" stroke-width="2" stroke-linecap="round" stroke-linejoin="round"/>
</svg>
