<svg width="256" height="260" viewBox="0 0 256 260" fill="none" xmlns="http://www.w3.org/2000/svg">
<path d="M200.9 199.8C200.9 213.7 168.7 224.9 129 224.9C89.2996 224.9 57.0996 213.6 57.0996 199.8C57.0996 185.9 89.2996 174.7 129 174.7C168.7 174.7 200.9 185.9 200.9 199.8Z" fill="#9EDCF2"/>
<path d="M200.9 199.8C200.9 213.7 168.7 224.9 129 224.9C89.2996 224.9 57.0996 213.6 57.0996 199.8C57.0996 185.9 89.2996 174.7 129 174.7C168.7 174.7 200.9 185.9 200.9 199.8Z" fill="#7DBCE7"/>
<path d="M46.8991 125.9L44.7991 133.1C44.7991 133.1 44.2991 135.7 46.6991 136.2C49.2991 136.1 49.0991 133.7 48.8991 133L46.8991 125.9Z" fill="#9EDCF2"/>
<path d="M255.8 95.6001L256 94.7001C234.9 90.5001 213.3 90.4001 200.2 91.0001C202.3 83.3001 203 74.3001 203 64.4001C203 50.1001 197.6 38.7001 189 30.1001C190.5 25.2001 192.5 14.3001 187 0.400103C187 0.400103 177.2 -2.6999 154.9 12.2001C146.2 10.0001 136.9 8.9001 127.6 8.9001C117.4 8.9001 107.1 10.2001 97.4 12.8001C74.4 -2.8999 64.3 0.300103 64.3 0.300103C57.7 16.8001 61.8 29.1001 63 32.1001C55.2 40.5001 50.5 51.2001 50.5 64.3001C50.5 74.2001 51.6 83.1001 54.4 90.8001C41.2 90.3001 20.4 90.5001 0 94.6001L0.2 95.5001C20.6 91.4001 41.6 91.3001 54.7 91.8001C55.3 93.4001 56 95.0001 56.7 96.5001C43.7 96.9001 21.6 98.6001 0.4 104.6L0.7 105.5C22.1 99.5001 44.4 97.9001 57.3 97.5001C65.1 111.9 80.3 121.3 107.5 124.2C103.6 126.8 99.7 131.2 98.1 138.7C92.8 141.2 76.2 147.4 66.2 130.2C66.2 130.2 60.6 120 49.9 119.2C49.9 119.2 39.5 119 49.2 125.7C49.2 125.7 56.1 129 60.9 141.3C60.9 141.3 67.2 162.3 97.3 155.5V177C97.3 177 96.7 184.7 89.6 187.2C89.6 187.2 85.4 190.1 89.9 191.7C89.9 191.7 109.4 193.3 109.4 177.3V153.7C109.4 153.7 108.6 144.3 113.2 141.1V179.9C113.2 179.9 112.9 189.2 108.1 192.7C108.1 192.7 104.9 198.4 111.9 196.9C111.9 196.9 125.3 195 125.9 179.3L126.2 140H129.4L129.7 179.3C130.3 194.9 143.7 196.9 143.7 196.9C150.7 198.5 147.5 192.7 147.5 192.7C142.7 189.2 142.4 179.9 142.4 179.9V141.4C147 145 146.2 153.7 146.2 153.7V177.3C146.2 193.3 165.7 191.7 165.7 191.7C170.2 190.1 166 187.2 166 187.2C159 184.6 158.3 177 158.3 177V146C158.3 133.9 153.2 127.5 148.2 124.2C177.2 121.3 191.1 112 197.5 97.4001C210.2 97.7001 233.1 99.3001 254.9 105.5L255.2 104.6C233.5 98.5001 210.8 96.9001 197.9 96.5001C198.5 95.0001 199 93.5001 199.5 91.9001C212.9 91.4001 234.6 91.4001 255.8 95.6001V95.6001Z" fill="#010101"/>
<path d="M174.6 63.6998C180.8 69.3998 184.5 76.1998 184.5 83.4998C184.5 117.9 158.9 118.8 127.3 118.8C95.6996 118.8 70.0996 114 70.0996 83.4998C70.0996 76.1998 73.6996 69.3998 79.8996 63.7998C90.1996 54.3998 107.6 59.3998 127.3 59.3998C147 59.3998 164.3 54.2998 174.6 63.6998V63.6998Z" fill="#F5CCB3"/>
<path d="M108.3 85.3002C108.3 94.8002 103 102.4 96.4 102.4C89.8 102.4 84.5 94.7002 84.5 85.3002C84.5 75.8002 89.8 68.2002 96.4 68.2002C103 68.1002 108.3 75.8002 108.3 85.3002V85.3002Z" fill="white"/>
<path d="M104.499 85.5001C104.499 91.8001 100.899 96.9001 96.5992 96.9001C92.1992 96.9001 88.6992 91.8001 88.6992 85.5001C88.6992 79.2001 92.2992 74.1001 96.5992 74.1001C100.899 74.1001 104.499 79.2001 104.499 85.5001Z" fill="#AF5C51"/>
<path d="M172.2 85.3002C172.2 94.8002 166.9 102.4 160.3 102.4C153.7 102.4 148.4 94.7002 148.4 85.3002C148.4 75.8002 153.7 68.2002 160.3 68.2002C166.8 68.1002 172.2 75.8002 172.2 85.3002V85.3002Z" fill="white"/>
<path d="M168.3 85.5001C168.3 91.8001 164.7 96.9001 160.4 96.9001C156 96.9001 152.5 91.8001 152.5 85.5001C152.5 79.2001 156.1 74.1001 160.4 74.1001C164.8 74.1001 168.3 79.2001 168.3 85.5001Z" fill="#AF5C51"/>
<path d="M130.5 100.5C130.5 102.1 129.2 103.5 127.5 103.5C125.9 103.5 124.5 102.2 124.5 100.5C124.5 98.8 125.8 97.5 127.5 97.5C129.1 97.5 130.5 98.8 130.5 100.5Z" fill="#AF5C51"/>
<path d="M120.6 108C120.4 107.5 120.7 107 121.2 106.8C121.7 106.6 122.2 106.9 122.4 107.4C123.2 109.6 125.2 111 127.5 111C129.8 111 131.8 109.5 132.6 107.4C132.8 106.9 133.3 106.6 133.8 106.8C134.3 107 134.6 107.5 134.4 108C133.4 110.9 130.6 112.9 127.5 112.9C124.4 112.9 121.6 110.9 120.6 108V108Z" fill="#AF5C51"/>
<path d="M54.5008 121.6C54.5008 122.4 53.6008 123 52.4008 123C51.3008 123 50.3008 122.4 50.3008 121.6C50.3008 120.8 51.2008 120.2 52.4008 120.2C53.6008 120.2 54.5008 120.8 54.5008 121.6Z" fill="#C4E5D9"/>
<path d="M60.2996 124.8C60.2996 125.6 59.3996 126.2 58.1996 126.2C57.0996 126.2 56.0996 125.6 56.0996 124.8C56.0996 124 56.9996 123.4 58.1996 123.4C59.3996 123.4 60.2996 124 60.2996 124.8Z" fill="#C4E5D9"/>
<path d="M63.7996 129C63.7996 129.8 62.8996 130.4 61.6996 130.4C60.5996 130.4 59.5996 129.8 59.5996 129C59.5996 128.2 60.4996 127.6 61.6996 127.6C62.8996 127.5 63.7996 128.2 63.7996 129Z" fill="#C4E5D9"/>
<path d="M67.0008 133.8C67.0008 134.6 66.1008 135.2 64.9008 135.2C63.8008 135.2 62.8008 134.6 62.8008 133.8C62.8008 133 63.7008 132.4 64.9008 132.4C66.1008 132.3 67.0008 133 67.0008 133.8Z" fill="#C4E5D9"/>
<path d="M70.5008 138.2C70.5008 139 69.6008 139.6 68.4008 139.6C67.3008 139.6 66.3008 139 66.3008 138.2C66.3008 137.4 67.2008 136.8 68.4008 136.8C69.6008 136.8 70.5008 137.4 70.5008 138.2Z" fill="#C4E5D9"/>
<path d="M75.2996 142.1C75.2996 142.9 74.3996 143.5 73.1996 143.5C72.0996 143.5 71.0996 142.9 71.0996 142.1C71.0996 141.3 71.9996 140.7 73.1996 140.7C74.3996 140.6 75.2996 141.3 75.2996 142.1Z" fill="#C4E5D9"/>
<path d="M82.0008 144.6C82.0008 145.4 81.1008 146 79.9008 146C78.8008 146 77.8008 145.4 77.8008 144.6C77.8008 143.8 78.7008 143.2 79.9008 143.2C81.1008 143.2 82.0008 143.8 82.0008 144.6Z" fill="#C4E5D9"/>
<path d="M88.7 144.6C88.7 145.4 87.8 146 86.6 146C85.5 146 84.5 145.4 84.5 144.6C84.5 143.8 85.4 143.2 86.6 143.2C87.8 143.2 88.7 143.8 88.7 144.6Z" fill="#C4E5D9"/>
<path d="M95.5008 143.5C95.5008 144.3 94.6008 144.9 93.4008 144.9C92.3008 144.9 91.3008 144.3 91.3008 143.5C91.3008 142.7 92.2008 142.1 93.4008 142.1C94.5008 142.1 95.5008 142.7 95.5008 143.5Z" fill="#C4E5D9"/>
</svg>
