<svg width="24" height="26" viewBox="0 0 24 26" fill="none" xmlns="http://www.w3.org/2000/svg">
<path d="M21.2831 8.96515L15.3323 8.02823L12.6722 2.18585C12.5995 2.02589 12.48 1.8964 12.3323 1.81769C11.962 1.61964 11.512 1.78468 11.3268 2.18585L8.66668 8.02823L2.7159 8.96515C2.55184 8.99054 2.40184 9.07433 2.28699 9.20128C2.14815 9.35587 2.07165 9.56386 2.07428 9.77953C2.07692 9.9952 2.15849 10.2009 2.30106 10.3515L6.60653 14.8989L5.58934 21.3202C5.56549 21.4696 5.58074 21.6232 5.63338 21.7637C5.68602 21.9041 5.77394 22.0258 5.88716 22.1149C6.00038 22.204 6.13437 22.2569 6.27395 22.2677C6.41352 22.2785 6.5531 22.2467 6.67684 22.1759L11.9995 19.1442L17.3222 22.1759C17.4675 22.2597 17.6362 22.2876 17.7979 22.2571C18.2057 22.181 18.48 21.762 18.4097 21.3202L17.3925 14.8989L21.6979 10.3515C21.8151 10.2271 21.8925 10.0646 21.9159 9.88683C21.9792 9.44249 21.6932 9.03116 21.2831 8.96515ZM15.5807 14.2591L16.4268 19.5987L11.9995 17.08L7.57215 19.6013L8.41824 14.2616L4.83699 10.4784L9.78699 9.69894L11.9995 4.84171L14.212 9.69894L19.162 10.4784L15.5807 14.2591Z" fill="black"/>
</svg>
