<svg width="20" height="20" viewBox="0 0 20 20" fill="none" xmlns="http://www.w3.org/2000/svg">
<path d="M17.7359 6.89625L12.7769 6.17554L10.5601 1.6814C10.4996 1.55836 10.4 1.45875 10.2769 1.3982C9.96833 1.24586 9.59333 1.37281 9.43903 1.6814L7.22223 6.17554L2.26325 6.89625C2.12653 6.91578 2.00153 6.98023 1.90583 7.07789C1.79013 7.19681 1.72637 7.35679 1.72857 7.5227C1.73077 7.6886 1.79874 7.84684 1.91755 7.96265L5.50544 11.4607L4.65778 16.4002C4.6379 16.5151 4.65062 16.6332 4.69449 16.7413C4.73835 16.8493 4.81161 16.9429 4.90596 17.0114C5.00031 17.08 5.11198 17.1207 5.22829 17.129C5.3446 17.1373 5.46091 17.1128 5.56403 17.0584L9.99958 14.7263L14.4351 17.0584C14.5562 17.1228 14.6968 17.1443 14.8316 17.1209C15.1715 17.0623 15.4 16.74 15.3414 16.4002L14.4937 11.4607L18.0816 7.96265C18.1793 7.86695 18.2437 7.74195 18.2633 7.60523C18.316 7.26343 18.0777 6.94703 17.7359 6.89625Z" fill="#00B0D3"/>
</svg>
