<svg width="20" height="20" viewBox="0 0 20 20" fill="none" xmlns="http://www.w3.org/2000/svg">
<path fill-rule="evenodd" clip-rule="evenodd" d="M2.5 19.375V2.5C2.5 1.83696 2.76339 1.20107 3.23223 0.732233C3.70107 0.263392 4.33696 0 5 0L15 0C15.663 0 16.2989 0.263392 16.7678 0.732233C17.2366 1.20107 17.5 1.83696 17.5 2.5V19.375C17.5001 19.4835 17.4719 19.5902 17.4182 19.6845C17.3645 19.7789 17.2872 19.8576 17.1939 19.913C17.1005 19.9684 16.9944 19.9985 16.8859 20.0004C16.7774 20.0022 16.6702 19.9758 16.575 19.9238L10 16.3363L3.425 19.9238C3.32979 19.9758 3.22265 20.0022 3.11413 20.0004C3.00561 19.9985 2.89946 19.9684 2.80611 19.913C2.71277 19.8576 2.63546 19.7789 2.58178 19.6845C2.52811 19.5902 2.49992 19.4835 2.5 19.375ZM10.2 5.125C10.1817 5.08752 10.1533 5.05592 10.1179 5.03382C10.0826 5.01172 10.0417 5 10 5C9.9583 5 9.91744 5.01172 9.88208 5.03382C9.84671 5.05592 9.81827 5.08752 9.8 5.125L9.0075 6.73125C8.99164 6.76374 8.96809 6.79188 8.93891 6.81322C8.90972 6.83457 8.87577 6.84848 8.84 6.85375L7.065 7.11125C7.02414 7.11745 6.98581 7.13491 6.95431 7.16167C6.92282 7.18843 6.8994 7.22344 6.88668 7.26276C6.87396 7.30208 6.87245 7.34417 6.88231 7.38431C6.89217 7.42445 6.91301 7.46104 6.9425 7.49L8.225 8.74125C8.2775 8.7925 8.30125 8.86625 8.28875 8.93875L7.9875 10.7062C7.98071 10.7471 7.98543 10.789 8.00113 10.8272C8.01684 10.8655 8.0429 10.8987 8.0764 10.9229C8.1099 10.9472 8.14951 10.9617 8.19077 10.9647C8.23204 10.9677 8.27333 10.9592 8.31 10.94L9.8975 10.105C9.92933 10.0884 9.96471 10.0797 10.0006 10.0797C10.0365 10.0797 10.0719 10.0884 10.1038 10.105L11.6912 10.94C11.7279 10.9588 11.769 10.9671 11.8101 10.9639C11.8511 10.9607 11.8905 10.9462 11.9238 10.922C11.9571 10.8978 11.983 10.8648 11.9987 10.8267C12.0144 10.7886 12.0191 10.7469 12.0125 10.7062L11.71 8.9375C11.7036 8.90198 11.706 8.86544 11.7169 8.83103C11.7278 8.79663 11.7468 8.76538 11.7725 8.74L13.0575 7.48875C13.087 7.45979 13.1078 7.4232 13.1177 7.38306C13.1276 7.34292 13.126 7.30083 13.1133 7.26151C13.1006 7.22219 13.0772 7.18718 13.0457 7.16042C13.0142 7.13366 12.9759 7.1162 12.935 7.11L11.16 6.8525C11.1242 6.84723 11.0903 6.83332 11.0611 6.81197C11.0319 6.79063 11.0084 6.76249 10.9925 6.73L10.2 5.125Z" fill="silver"/>

</svg>
